# xmcd
#
# Track frame offsets: 
#        150
#        13055
#        25379
#        36831
#        54752
#        65051
#        80251
#        99920
#        112010
#        134123
#        149571
#        167023
#        180885
#
# Disc length: 2658 seconds
#
# Revision: 0
# Processed by: cddbd v1.5.2PL0 Copyright (c) Steve Scherf et al.
# Submitted via: ExactAudioCopy v0.99pb4
#
DISCID=ae0a600d
DTITLE=Pam Gadd - The Time Of Our Lives
DYEAR=2001
DGENRE=Bluegrass
TTITLE0=Virginia Man
TTITLE1=If I Was A River
TTITLE2=Hold Your Horses
TTITLE3=Some Things Stay The Same
TTITLE4=Acoustisizer
TTITLE5=Go On
TTITLE6=Blue Railroad Tracks
TTITLE7=A Whole Lot Of Heart
TTITLE8=Living Room
TTITLE9=Settling Down
TTITLE10=Love Never Felt Like This
TTITLE11=Ramble And Roll
TTITLE12=The Time Of Our Lives
EXTD=
EXTT0=
EXTT1=
EXTT2=
EXTT3=
EXTT4=
EXTT5=
EXTT6=
EXTT7=
EXTT8=
EXTT9=
EXTT10=
EXTT11=
EXTT12=
PLAYORDER=
